<mxfile host="app.diagrams.net" agent="Mozilla/5.0 (Windows NT 10.0; Win64; x64) AppleWebKit/537.36 (KHTML, like Gecko) Chrome/131.0.0.0 Safari/537.36 Edg/131.0.0.0" version="24.9.0">
  <diagram name="1 oldal" id="8jCl28bYToG2T7znZWy4">
    <mxGraphModel dx="1426" dy="1958" grid="1" gridSize="10" guides="1" tooltips="1" connect="1" arrows="1" fold="1" page="1" pageScale="1" pageWidth="827" pageHeight="1169" math="0" shadow="0">
      <root>
        <mxCell id="0" />
        <mxCell id="1" parent="0" />
        <mxCell id="laKfoMu4vDz7gOgftW2H-1" value="&lt;font style=&quot;font-size: 20px;&quot;&gt;Human&lt;/font&gt;" style="ellipse;whiteSpace=wrap;html=1;aspect=fixed;fillColor=#007FFF;strokeWidth=2;" parent="1" vertex="1">
          <mxGeometry x="40" y="240" width="80" height="80" as="geometry" />
        </mxCell>
        <mxCell id="laKfoMu4vDz7gOgftW2H-3" value="" style="rounded=0;whiteSpace=wrap;html=1;gradientColor=none;fillColor=#007FFF;" parent="1" vertex="1">
          <mxGeometry x="280" y="-40" width="400" height="640" as="geometry" />
        </mxCell>
        <mxCell id="laKfoMu4vDz7gOgftW2H-4" value="&lt;font style=&quot;font-size: 15px;&quot;&gt;Interface&lt;/font&gt;" style="text;html=1;align=center;verticalAlign=middle;resizable=0;points=[];autosize=1;strokeColor=none;fillColor=none;" parent="1" vertex="1">
          <mxGeometry x="440" y="-40" width="80" height="30" as="geometry" />
        </mxCell>
        <mxCell id="laKfoMu4vDz7gOgftW2H-5" value="" style="rounded=0;whiteSpace=wrap;html=1;fillColor=#007FFF;" parent="1" vertex="1">
          <mxGeometry x="720" y="-40" width="400" height="640" as="geometry" />
        </mxCell>
        <mxCell id="laKfoMu4vDz7gOgftW2H-6" value="&lt;font style=&quot;font-size: 15px;&quot;&gt;Engine&lt;/font&gt;" style="text;html=1;align=center;verticalAlign=middle;resizable=0;points=[];autosize=1;strokeColor=none;fillColor=none;" parent="1" vertex="1">
          <mxGeometry x="885" y="-40" width="70" height="30" as="geometry" />
        </mxCell>
        <mxCell id="laKfoMu4vDz7gOgftW2H-7" value="&lt;font style=&quot;font-size: 15px;&quot;&gt;Player_Movement&lt;/font&gt;" style="ellipse;whiteSpace=wrap;html=1;fillColor=#007FFF;strokeWidth=2;" parent="1" vertex="1">
          <mxGeometry x="320" y="55" width="150" height="80" as="geometry" />
        </mxCell>
        <mxCell id="laKfoMu4vDz7gOgftW2H-8" value="&lt;font style=&quot;font-size: 15px;&quot;&gt;Shoot&lt;/font&gt;" style="ellipse;whiteSpace=wrap;html=1;fillColor=#007FFF;strokeWidth=2;" parent="1" vertex="1">
          <mxGeometry x="320" y="240" width="150" height="80" as="geometry" />
        </mxCell>
        <mxCell id="laKfoMu4vDz7gOgftW2H-10" value="&lt;font style=&quot;font-size: 15px;&quot;&gt;Create_Room&lt;/font&gt;" style="ellipse;whiteSpace=wrap;html=1;fillColor=#007FFF;strokeWidth=2;" parent="1" vertex="1">
          <mxGeometry x="320" y="360" width="150" height="80" as="geometry" />
        </mxCell>
        <mxCell id="laKfoMu4vDz7gOgftW2H-12" value="" style="edgeStyle=none;orthogonalLoop=1;jettySize=auto;html=1;rounded=0;exitX=1;exitY=0.5;exitDx=0;exitDy=0;entryX=0;entryY=0.5;entryDx=0;entryDy=0;endArrow=none;endFill=0;strokeWidth=2;" parent="1" source="laKfoMu4vDz7gOgftW2H-1" target="laKfoMu4vDz7gOgftW2H-7" edge="1">
          <mxGeometry width="100" relative="1" as="geometry">
            <mxPoint x="130" y="250" as="sourcePoint" />
            <mxPoint x="230" y="250" as="targetPoint" />
            <Array as="points" />
          </mxGeometry>
        </mxCell>
        <mxCell id="laKfoMu4vDz7gOgftW2H-13" value="" style="edgeStyle=none;orthogonalLoop=1;jettySize=auto;html=1;rounded=0;exitX=1;exitY=0.5;exitDx=0;exitDy=0;entryX=0;entryY=0.5;entryDx=0;entryDy=0;endArrow=none;endFill=0;strokeWidth=2;" parent="1" source="laKfoMu4vDz7gOgftW2H-1" target="laKfoMu4vDz7gOgftW2H-8" edge="1">
          <mxGeometry width="100" relative="1" as="geometry">
            <mxPoint x="130" y="290" as="sourcePoint" />
            <mxPoint x="310" y="170" as="targetPoint" />
            <Array as="points" />
          </mxGeometry>
        </mxCell>
        <mxCell id="laKfoMu4vDz7gOgftW2H-15" value="" style="edgeStyle=none;orthogonalLoop=1;jettySize=auto;html=1;rounded=0;exitX=1;exitY=0.5;exitDx=0;exitDy=0;endArrow=none;endFill=0;strokeWidth=2;entryX=0;entryY=0.5;entryDx=0;entryDy=0;" parent="1" edge="1">
          <mxGeometry width="100" relative="1" as="geometry">
            <mxPoint x="120" y="280" as="sourcePoint" />
            <mxPoint x="320" y="400" as="targetPoint" />
            <Array as="points" />
          </mxGeometry>
        </mxCell>
        <mxCell id="laKfoMu4vDz7gOgftW2H-18" value="&lt;font style=&quot;font-size: 15px;&quot;&gt;Remove_Bullet&lt;br&gt;&lt;/font&gt;" style="ellipse;whiteSpace=wrap;html=1;fillColor=#007FFF;strokeWidth=2;" parent="1" vertex="1">
          <mxGeometry x="750" y="370" width="150" height="80" as="geometry" />
        </mxCell>
        <mxCell id="laKfoMu4vDz7gOgftW2H-23" value="" style="endArrow=classicThin;dashed=1;html=1;rounded=0;strokeWidth=2;exitX=0.5;exitY=0;exitDx=0;exitDy=0;entryX=0.5;entryY=1;entryDx=0;entryDy=0;endFill=1;strokeColor=#FFFFFF;" parent="1" source="laKfoMu4vDz7gOgftW2H-8" target="laKfoMu4vDz7gOgftW2H-7" edge="1">
          <mxGeometry width="50" height="50" relative="1" as="geometry">
            <mxPoint x="540" y="330" as="sourcePoint" />
            <mxPoint x="590" y="280" as="targetPoint" />
          </mxGeometry>
        </mxCell>
        <mxCell id="laKfoMu4vDz7gOgftW2H-26" value="" style="endArrow=none;dashed=1;html=1;rounded=0;strokeWidth=2;endFill=0;entryX=0;entryY=0.5;entryDx=0;entryDy=0;strokeColor=#FFFFFF;startArrow=classicThin;startFill=1;exitX=1;exitY=0.5;exitDx=0;exitDy=0;" parent="1" source="laKfoMu4vDz7gOgftW2H-8" target="laKfoMu4vDz7gOgftW2H-18" edge="1">
          <mxGeometry width="50" height="50" relative="1" as="geometry">
            <mxPoint x="460" y="290" as="sourcePoint" />
            <mxPoint x="745" y="170" as="targetPoint" />
          </mxGeometry>
        </mxCell>
        <mxCell id="laKfoMu4vDz7gOgftW2H-27" value="&lt;font color=&quot;#ffffff&quot; style=&quot;font-size: 14px;&quot;&gt;&amp;lt;&amp;lt;Include&amp;gt;&amp;gt;&lt;/font&gt;" style="text;html=1;align=center;verticalAlign=middle;resizable=0;points=[];autosize=1;strokeColor=none;fillColor=none;" parent="1" vertex="1">
          <mxGeometry x="570" y="310" width="100" height="30" as="geometry" />
        </mxCell>
        <mxCell id="laKfoMu4vDz7gOgftW2H-29" value="&lt;font style=&quot;font-size: 15px;&quot;&gt;Remove_Player&lt;/font&gt;" style="ellipse;whiteSpace=wrap;html=1;fillColor=#007FFF;strokeWidth=2;" parent="1" vertex="1">
          <mxGeometry x="760" width="150" height="80" as="geometry" />
        </mxCell>
        <mxCell id="laKfoMu4vDz7gOgftW2H-30" value="" style="endArrow=none;dashed=1;html=1;rounded=0;strokeWidth=2;endFill=0;exitX=0.5;exitY=0;exitDx=0;exitDy=0;entryX=0.5;entryY=1;entryDx=0;entryDy=0;strokeColor=#FFFFFF;startArrow=classicThin;startFill=1;" parent="1" source="dzV5U168PBlfoeFN_hcs-4" target="laKfoMu4vDz7gOgftW2H-29" edge="1">
          <mxGeometry width="50" height="50" relative="1" as="geometry">
            <mxPoint x="480" y="290" as="sourcePoint" />
            <mxPoint x="745" y="180" as="targetPoint" />
          </mxGeometry>
        </mxCell>
        <mxCell id="laKfoMu4vDz7gOgftW2H-31" value="&lt;font color=&quot;#ffffff&quot; style=&quot;font-size: 14px;&quot;&gt;&amp;lt;&amp;lt;&lt;/font&gt;&lt;span style=&quot;color: rgb(255, 255, 255); font-size: 14px;&quot;&gt;Extend&lt;/span&gt;&lt;font color=&quot;#ffffff&quot; style=&quot;font-size: 14px;&quot;&gt;&amp;gt;&amp;gt;&lt;/font&gt;" style="text;html=1;align=center;verticalAlign=middle;resizable=0;points=[];autosize=1;strokeColor=none;fillColor=none;" parent="1" vertex="1">
          <mxGeometry x="830" y="110" width="100" height="30" as="geometry" />
        </mxCell>
        <mxCell id="dzV5U168PBlfoeFN_hcs-1" value="&lt;font style=&quot;font-size: 15px;&quot;&gt;Join_Room&lt;/font&gt;" style="ellipse;whiteSpace=wrap;html=1;fillColor=#007FFF;strokeWidth=2;" vertex="1" parent="1">
          <mxGeometry x="320" y="480" width="150" height="80" as="geometry" />
        </mxCell>
        <mxCell id="dzV5U168PBlfoeFN_hcs-2" value="" style="edgeStyle=none;orthogonalLoop=1;jettySize=auto;html=1;rounded=0;exitX=1;exitY=0.5;exitDx=0;exitDy=0;endArrow=none;endFill=0;strokeWidth=2;" edge="1" parent="1" source="laKfoMu4vDz7gOgftW2H-1" target="laKfoMu4vDz7gOgftW2H-3">
          <mxGeometry width="100" relative="1" as="geometry">
            <mxPoint x="130" y="290" as="sourcePoint" />
            <mxPoint x="330" y="410" as="targetPoint" />
            <Array as="points" />
          </mxGeometry>
        </mxCell>
        <mxCell id="dzV5U168PBlfoeFN_hcs-3" value="" style="edgeStyle=none;orthogonalLoop=1;jettySize=auto;html=1;rounded=0;endArrow=none;endFill=0;strokeWidth=2;entryX=0;entryY=0.5;entryDx=0;entryDy=0;" edge="1" parent="1" target="dzV5U168PBlfoeFN_hcs-1">
          <mxGeometry width="100" relative="1" as="geometry">
            <mxPoint x="120" y="280" as="sourcePoint" />
            <mxPoint x="330" y="410" as="targetPoint" />
            <Array as="points" />
          </mxGeometry>
        </mxCell>
        <mxCell id="dzV5U168PBlfoeFN_hcs-4" value="&lt;font style=&quot;font-size: 15px;&quot;&gt;Damage_Player&lt;/font&gt;" style="ellipse;whiteSpace=wrap;html=1;fillColor=#007FFF;strokeWidth=2;" vertex="1" parent="1">
          <mxGeometry x="760" y="170" width="150" height="80" as="geometry" />
        </mxCell>
        <mxCell id="dzV5U168PBlfoeFN_hcs-5" value="" style="endArrow=none;dashed=1;html=1;rounded=0;strokeWidth=2;endFill=0;exitX=1;exitY=0.5;exitDx=0;exitDy=0;entryX=0;entryY=0.5;entryDx=0;entryDy=0;strokeColor=#FFFFFF;startArrow=classicThin;startFill=1;" edge="1" parent="1" source="laKfoMu4vDz7gOgftW2H-7" target="dzV5U168PBlfoeFN_hcs-4">
          <mxGeometry width="50" height="50" relative="1" as="geometry">
            <mxPoint x="480" y="170" as="sourcePoint" />
            <mxPoint x="770" y="50" as="targetPoint" />
          </mxGeometry>
        </mxCell>
        <mxCell id="dzV5U168PBlfoeFN_hcs-6" value="&lt;font color=&quot;#ffffff&quot; style=&quot;font-size: 14px;&quot;&gt;&amp;lt;&amp;lt;Include&amp;gt;&amp;gt;&lt;/font&gt;" style="text;html=1;align=center;verticalAlign=middle;resizable=0;points=[];autosize=1;strokeColor=none;fillColor=none;" vertex="1" parent="1">
          <mxGeometry x="580" y="120" width="100" height="30" as="geometry" />
        </mxCell>
        <mxCell id="dzV5U168PBlfoeFN_hcs-7" value="&lt;font color=&quot;#ffffff&quot; style=&quot;font-size: 14px;&quot;&gt;&amp;lt;&amp;lt;&lt;/font&gt;&lt;span style=&quot;color: rgb(255, 255, 255); font-size: 14px;&quot;&gt;Extend&lt;/span&gt;&lt;font color=&quot;#ffffff&quot; style=&quot;font-size: 14px;&quot;&gt;&amp;gt;&amp;gt;&lt;/font&gt;" style="text;html=1;align=center;verticalAlign=middle;resizable=0;points=[];autosize=1;strokeColor=none;fillColor=none;" vertex="1" parent="1">
          <mxGeometry x="300" y="170" width="100" height="30" as="geometry" />
        </mxCell>
        <mxCell id="dzV5U168PBlfoeFN_hcs-8" value="&lt;font style=&quot;font-size: 15px;&quot;&gt;Spawn_Player&lt;/font&gt;" style="ellipse;whiteSpace=wrap;html=1;fillColor=#007FFF;strokeWidth=2;" vertex="1" parent="1">
          <mxGeometry x="750" y="480" width="150" height="80" as="geometry" />
        </mxCell>
        <mxCell id="dzV5U168PBlfoeFN_hcs-9" value="" style="endArrow=none;dashed=1;html=1;rounded=0;strokeWidth=2;endFill=0;strokeColor=#FFFFFF;startArrow=classicThin;startFill=1;exitX=1;exitY=0.5;exitDx=0;exitDy=0;" edge="1" parent="1" source="laKfoMu4vDz7gOgftW2H-10">
          <mxGeometry width="50" height="50" relative="1" as="geometry">
            <mxPoint x="480" y="290" as="sourcePoint" />
            <mxPoint x="750" y="520" as="targetPoint" />
          </mxGeometry>
        </mxCell>
        <mxCell id="dzV5U168PBlfoeFN_hcs-10" value="" style="endArrow=none;dashed=1;html=1;rounded=0;strokeWidth=2;endFill=0;entryX=0;entryY=0.5;entryDx=0;entryDy=0;strokeColor=#FFFFFF;startArrow=classicThin;startFill=1;exitX=1;exitY=0.5;exitDx=0;exitDy=0;" edge="1" parent="1" source="dzV5U168PBlfoeFN_hcs-1" target="dzV5U168PBlfoeFN_hcs-8">
          <mxGeometry width="50" height="50" relative="1" as="geometry">
            <mxPoint x="490" y="300" as="sourcePoint" />
            <mxPoint x="780" y="300" as="targetPoint" />
          </mxGeometry>
        </mxCell>
        <mxCell id="dzV5U168PBlfoeFN_hcs-11" value="&lt;font color=&quot;#ffffff&quot; style=&quot;font-size: 14px;&quot;&gt;&amp;lt;&amp;lt;Include&amp;gt;&amp;gt;&lt;/font&gt;" style="text;html=1;align=center;verticalAlign=middle;resizable=0;points=[];autosize=1;strokeColor=none;fillColor=none;" vertex="1" parent="1">
          <mxGeometry x="550" y="420" width="100" height="30" as="geometry" />
        </mxCell>
        <mxCell id="dzV5U168PBlfoeFN_hcs-12" value="&lt;font color=&quot;#ffffff&quot; style=&quot;font-size: 14px;&quot;&gt;&amp;lt;&amp;lt;Include&amp;gt;&amp;gt;&lt;/font&gt;" style="text;html=1;align=center;verticalAlign=middle;resizable=0;points=[];autosize=1;strokeColor=none;fillColor=none;" vertex="1" parent="1">
          <mxGeometry x="500" y="490" width="100" height="30" as="geometry" />
        </mxCell>
      </root>
    </mxGraphModel>
  </diagram>
</mxfile>
